<?xml version="1.0" standalone="no"?>
<!DOCTYPE svg PUBLIC "-//W3C//DTD SVG 20010904//EN"
 "http://www.w3.org/TR/2001/REC-SVG-20010904/DTD/svg10.dtd">
<svg version="1.0" xmlns="http://www.w3.org/2000/svg"
 width="512.000000pt" height="512.000000pt" viewBox="0 0 512.000000 512.000000"
 preserveAspectRatio="xMidYMid meet">
<metadata>
Created by potrace 1.14, written by Peter Selinger 2001-2017
</metadata>
<g transform="translate(0.000000,512.000000) scale(0.100000,-0.100000)"
fill="#000000" stroke="none">
<path d="M2538 4855 c-2 -1 -55 -5 -118 -9 -135 -7 -168 -11 -275 -32 -44 -8
-91 -18 -105 -20 -81 -16 -245 -69 -364 -118 -208 -87 -445 -232 -605 -371
-72 -63 -238 -233 -293 -300 -142 -176 -293 -442 -373 -658 -62 -169 -116
-415 -130 -592 -5 -62 -5 -338 -1 -385 14 -130 21 -177 42 -275 61 -296 170
-556 339 -810 41 -60 82 -119 92 -130 10 -11 36 -43 58 -70 41 -51 193 -206
256 -262 49 -42 211 -162 279 -205 302 -191 650 -307 1031 -344 65 -6 314 -5
389 1 81 7 242 33 295 47 22 5 47 11 55 13 84 16 260 77 385 132 655 293 1143
888 1302 1588 48 214 73 546 46 623 -45 132 -212 148 -288 29 -13 -21 -19 -53
-21 -130 -6 -192 -15 -284 -40 -402 -8 -38 -17 -81 -20 -95 -13 -64 -87 -268
-134 -365 -281 -586 -842 -1007 -1465 -1099 -22 -4 -65 -10 -95 -15 -80 -13
-371 -10 -475 4 -344 49 -646 171 -919 373 -128 94 -342 310 -426 430 -183
260 -296 533 -345 832 -23 143 -26 180 -26 315 0 132 5 203 22 310 56 360 206
688 447 975 245 292 589 513 962 619 107 30 145 39 199 47 17 2 46 6 64 9 117
18 409 25 481 11 16 -3 50 -8 75 -11 72 -10 178 -33 276 -62 90 -26 282 -102
320 -127 49 -32 139 -23 184 17 83 76 70 200 -28 261 -138 85 -468 193 -676
222 -22 3 -51 8 -65 10 -14 2 -74 7 -135 10 -60 3 -124 7 -142 8 -18 2 -33 3
-35 1z"/>
<path d="M4663 4280 c-56 -13 16 55 -888 -835 -264 -260 -536 -528 -605 -595
-69 -67 -241 -237 -383 -377 -142 -140 -262 -253 -266 -251 -5 2 -216 207
-469 457 -253 250 -471 460 -484 467 -31 18 -112 17 -146 0 -101 -53 -116
-178 -32 -264 21 -20 232 -228 470 -462 238 -234 460 -452 494 -486 99 -98
138 -115 214 -95 45 13 28 -3 673 631 249 245 507 499 574 565 788 773 943
925 974 958 53 57 70 92 66 142 -8 100 -95 166 -192 145z"/>
</g>
</svg>
